<svg width="113" height="110" xmlns="http://www.w3.org/2000/svg"><g fill="none" fill-rule="evenodd"><path d="M96.674 36.183c.284 15.7-12.215 28.656-27.921 28.94-15.7.284-28.662-12.215-28.94-27.915-.284-15.706 12.215-28.662 27.915-28.945 15.706-.284 28.662 12.215 28.946 27.92" fill="#DF6542"/><path d="M68.257 11.04c-.161 0-.317 0-.479.006-6.848.123-13.24 2.906-18 7.84-4.754 4.932-7.31 11.418-7.187 18.272.128 6.848 2.912 13.24 7.84 18 4.82 4.648 11.123 7.187 17.798 7.187.156 0 .318 0 .474-.006 14.141-.25 25.443-11.964 25.187-26.105-.123-6.854-2.906-13.246-7.84-18-4.815-4.649-11.123-7.193-17.793-7.193zm-.028 56.872c-8.128 0-15.8-3.095-21.663-8.746-6.001-5.79-9.386-13.574-9.537-21.908-.15-8.34 2.951-16.235 8.741-22.237C51.56 9.02 59.344 5.63 67.678 5.48c8.34-.167 16.235 2.956 22.237 8.746 6.001 5.79 9.392 13.568 9.542 21.908.312 17.21-13.44 31.468-30.654 31.774-.19.005-.384.005-.574.005z" fill="#354D5F"/><path d="M85.416 25.867c.095 5.033-3.914 9.186-8.952 9.275-5.033.095-9.187-3.914-9.276-8.947a9.11 9.11 0 0 1 8.947-9.28 9.11 9.11 0 0 1 9.281 8.952" fill="#FFFFFE"/><path d="M110.036 72.372c.283 15.7-12.216 28.656-27.921 28.94-15.7.284-28.662-12.215-28.94-27.916C52.89 57.691 65.39 44.735 81.09 44.451c15.706-.284 28.662 12.215 28.946 27.921" fill="#DF6542"/><path d="M81.62 47.23c-.162 0-.318 0-.48.005-6.848.122-13.24 2.906-18 7.839-4.754 4.933-7.31 11.419-7.187 18.272.128 6.848 2.912 13.24 7.84 18 4.82 4.649 11.123 7.188 17.798 7.188.156 0 .318 0 .474-.006 14.14-.25 25.443-11.965 25.187-26.106-.123-6.853-2.906-13.245-7.84-18-4.815-4.648-11.123-7.193-17.793-7.193zM81.59 104.1c-8.128 0-15.8-3.096-21.663-8.747-6.001-5.79-9.386-13.573-9.537-21.908-.15-8.34 2.95-16.234 8.741-22.236 5.79-6.002 13.574-9.392 21.908-9.543 8.346-.156 16.235 2.957 22.237 8.747 6.001 5.79 9.392 13.568 9.542 21.908.312 17.209-13.44 31.467-30.654 31.773-.19.006-.384.006-.574.006z" fill="#354D5F"/><path d="M98.778 62.055c.095 5.033-3.914 9.187-8.952 9.276-5.033.094-9.187-3.914-9.276-8.947a9.11 9.11 0 0 1 8.947-9.281 9.11 9.11 0 0 1 9.281 8.952" fill="#FFFFFE"/><path d="M59.928 64.578c.284 15.7-12.215 28.655-27.92 28.94-15.7.283-28.662-12.216-28.94-27.916-.284-15.706 12.215-28.661 27.915-28.945 15.706-.284 28.661 12.215 28.945 27.92" fill="#DF6542"/><path d="M31.512 39.435c-.162 0-.317 0-.479.005-6.848.123-13.24 2.907-18 7.84-4.754 4.932-7.31 11.418-7.187 18.272.128 6.848 2.912 13.24 7.839 18 4.933 4.754 11.396 7.315 18.272 7.181 14.142-.25 25.444-11.964 25.188-26.105-.123-6.854-2.907-13.245-7.84-18-4.815-4.649-11.123-7.193-17.793-7.193zm-.028 56.872c-8.128 0-15.8-3.096-21.663-8.747C3.819 81.77.434 73.987.284 65.652c-.15-8.34 2.95-16.235 8.74-22.236 5.791-6.002 13.574-9.393 21.909-9.543 8.34-.162 16.235 2.956 22.236 8.746 6.002 5.79 9.393 13.568 9.543 21.908.312 17.21-13.44 31.468-30.655 31.774-.189.006-.384.006-.573.006z" fill="#354D5F"/><path d="M48.67 54.261c.095 5.033-3.913 9.186-8.952 9.275-5.033.095-9.186-3.914-9.275-8.947a9.11 9.11 0 0 1 8.947-9.28 9.11 9.11 0 0 1 9.28 8.952" fill="#FFFFFE"/></g></svg>
