<?xml version="1.0" encoding="UTF-8"?>
<svg width="113px" height="110px" viewBox="0 0 113 110" version="1.1" xmlns="http://www.w3.org/2000/svg" xmlns:xlink="http://www.w3.org/1999/xlink">
    <!-- Generator: Sketch 51.3 (57544) - http://www.bohemiancoding.com/sketch -->
    <title>shrimp</title>
    <desc>Created with Sketch.</desc>
    <defs></defs>
    <g id="shrimp" stroke="none" stroke-width="1" fill="none" fill-rule="evenodd">
        <g id="Group-2" transform="translate(0.000000, -0.600000)">
            <path d="M105.8226,6.642 L36.4872,7.89 C25.0818,8.1 17.0724,13.428 12.0024,24.192 C7.9356,32.826 5.9238,45.048 6.1854,59.55 C6.3828,70.512 11.6484,81.768 20.6328,90.432 C29.133,98.634 39.828,103.434 49.248,103.26 L76.2288,102.768 L71.3268,98.04 C70.3146,97.068 70.1166,95.52 70.8504,94.32 L73.35,90.228 L61.3158,95.556 C61.1448,95.628 60.9666,95.688 60.7842,95.73 C60.1464,95.88 45.0504,99.282 34.7568,91.26 C28.9668,86.754 25.9452,79.68 25.7754,70.236 C25.5984,60.414 27.9654,53.118 33.0126,47.934 C41.8338,38.862 56.9148,38.718 70.2216,38.592 C79.4088,38.502 88.086,38.418 92.9046,35.514 C107.8032,26.526 106.8108,12.054 105.8226,6.642 Z M48.774,109.26 C37.9488,109.26 25.917,103.866 16.467,94.752 C6.3462,84.99 0.4122,72.198 0.1866,59.658 C-0.4776,22.842 12.3762,2.328 36.3792,1.896 L108.135,0.6 C109.4538,0.576 110.643,1.428 111.0462,2.688 C111.126,2.934 112.9896,8.886 112.0842,16.5 C111.2388,23.604 107.7636,33.558 96.0042,40.65 C89.7816,44.406 80.3088,44.496 70.2792,44.592 C57.552,44.712 44.391,44.838 37.3134,52.116 C33.4392,56.1 31.6278,61.992 31.7742,70.134 C31.9104,77.67 34.1544,83.19 38.4438,86.532 C45.8784,92.322 57.3438,90.312 59.172,89.94 L79.7052,80.856 C80.9058,80.328 82.3116,80.64 83.1756,81.624 C84.0396,82.614 84.1626,84.048 83.478,85.164 L77.2248,95.394 L85.6074,103.482 C86.4804,104.322 86.7606,105.612 86.316,106.74 C85.872,107.868 84.7914,108.618 83.5782,108.642 L49.356,109.254 C49.1628,109.26 48.9684,109.26 48.774,109.26 Z" id="Fill-394" fill="#354D5F"></path>
            <path d="M66.1284,62.574 C64.4964,62.574 63.1596,61.266 63.1302,59.628 L63.0678,56.172 L53.9616,43.872 C52.9758,42.54 53.256,40.662 54.5874,39.678 C55.9182,38.694 57.7968,38.97 58.7838,40.302 L68.4618,53.37 C68.8332,53.874 69.0384,54.48 69.0498,55.104 L69.129,59.52 C69.159,61.176 67.8396,62.544 66.1836,62.574 L66.1284,62.574" id="Fill-395" fill="#354D5F"></path>
            <path d="M76.626,62.934 C74.994,62.934 73.6572,61.626 73.6278,59.988 L73.5648,56.532 L64.4586,44.238 C63.4728,42.906 63.753,41.028 65.0844,40.038 C66.4146,39.054 68.2932,39.336 69.2808,40.668 L78.9588,53.736 C79.3302,54.234 79.536,54.84 79.5468,55.464 L79.6266,59.88 C79.6566,61.536 78.3378,62.904 76.6812,62.934 L76.626,62.934" id="Fill-396" fill="#354D5F"></path>
            <path d="M86.5614,62.76 C84.9294,62.76 83.592,61.452 83.5626,59.814 L83.5002,56.358 L74.394,44.058 C73.4088,42.726 73.6884,40.848 75.0198,39.864 C76.3512,38.874 78.2298,39.156 79.2162,40.488 L88.8936,53.556 C89.265,54.06 89.4708,54.66 89.4822,55.29 L89.562,59.706 C89.5914,61.362 88.2732,62.724 86.616,62.754 L86.5614,62.76" id="Fill-397" fill="#354D5F"></path>
            <path d="M87.4428,16.674 C87.5028,20.028 84.834,22.794 81.4806,22.854 C78.1272,22.914 75.36,20.244 75.2994,16.89 C75.2388,13.542 77.9082,10.77 81.2616,10.71 C84.615,10.65 87.3822,13.32 87.4428,16.674" id="Fill-398" fill="#FFFFFE"></path>
            <path d="M47.0628,46.35 C45.4314,46.35 44.094,45.042 44.0646,43.404 L43.3884,5.874 C43.359,4.218 44.6778,2.85 46.3344,2.82 L46.389,2.82 C48.021,2.82 49.3584,4.128 49.3878,5.766 L50.0634,43.296 C50.0934,44.958 48.7746,46.32 47.118,46.35 L47.0628,46.35" id="Fill-399" fill="#354D5F"></path>
            <path d="M36.1266,52.068 C35.274,52.068 34.4268,51.708 33.834,51.006 L9.0102,21.636 C7.9398,20.376 8.0988,18.48 9.3642,17.412 C10.6296,16.338 12.5232,16.5 13.5918,17.766 L38.4156,47.136 C39.486,48.402 39.327,50.292 38.0616,51.36 C37.4982,51.84 36.8106,52.068 36.1266,52.068" id="Fill-400" fill="#354D5F"></path>
            <path d="M28.659,66.564 C28.506,66.564 28.3506,66.552 28.1946,66.528 L2.7252,62.568 C1.0878,62.31 -0.033,60.78 0.2214,59.142 C0.4764,57.504 2.0118,56.382 3.6462,56.64 L29.1156,60.594 C30.753,60.852 31.8738,62.382 31.6194,64.02 C31.389,65.502 30.1128,66.564 28.659,66.564" id="Fill-401" fill="#354D5F"></path>
            <path d="M19.8024,95.988 C18.8292,95.988 17.8752,95.514 17.298,94.638 C16.3836,93.258 16.7622,91.398 18.1434,90.486 L30.147,82.536 C31.5294,81.624 33.3894,82.002 34.3044,83.382 C35.2188,84.762 34.8402,86.628 33.459,87.54 L21.4554,95.484 C20.9454,95.826 20.3706,95.988 19.8024,95.988" id="Fill-402" fill="#354D5F"></path>
            <path d="M59.7786,108.516 C58.1466,108.516 56.8098,107.208 56.7804,105.57 L56.5614,93.426 C56.5314,91.77 57.8496,90.402 59.5068,90.372 C61.152,90.318 62.5308,91.662 62.5602,93.318 L62.7792,105.462 C62.8092,107.118 61.4904,108.486 59.8338,108.516 L59.7786,108.516" id="Fill-403" fill="#354D5F"></path>
        </g>
    </g>
</svg>