<svg width="31" height="29" xmlns="http://www.w3.org/2000/svg"><g fill="none" fill-rule="evenodd"><path d="M28.465 1.596l-18.584.336C6.064 2 1.553 4.46 1.755 15.777c.056 2.938 1.465 5.955 3.873 8.28 2.281 2.198 5.148 3.48 7.67 3.437l7.255-.13-1.33-1.287a.787.787 0 0 1-.127-.982l.69-1.13-3.26 1.442a.817.817 0 0 1-.139.048c-.17.04-4.209.95-6.961-1.196-1.549-1.204-2.356-3.097-2.4-5.62-.048-2.629.586-4.581 1.936-5.967 2.357-2.424 6.392-2.463 9.956-2.499 2.459-.024 4.788-.043 6.078-.823 4.04-2.436 3.747-6.305 3.47-7.754zM13.172 29.078c-2.895 0-6.114-1.445-8.645-3.884-2.704-2.61-4.292-6.036-4.356-9.39C-.007 5.952 3.434.464 9.853.348L29.071 0h.012c.345 0 .65.222.757.55.02.068 2 6.519-4.024 10.154-1.663 1.006-4.201 1.03-6.882 1.053-3.414.036-6.938.068-8.839 2.02-1.038 1.069-1.525 2.65-1.485 4.831.036 2.02.638 3.5 1.786 4.4 1.984 1.548 5.077 1.017 5.568.918l5.496-2.435a.799.799 0 0 1 .919.206.792.792 0 0 1 .08.934l-1.68 2.749 2.25 2.17c.229.221.304.562.19.859a.802.802 0 0 1-.725.503l-9.164.166h-.158z" fill="#DF6542"/><path d="M17.821 16.573a.791.791 0 0 1-.792-.777l-.016-.93-2.443-3.295a.795.795 0 0 1 .166-1.109.795.795 0 0 1 1.109.167l2.59 3.5c.099.131.154.293.158.456l.02 1.184a.791.791 0 0 1-.776.804h-.016M20.633 16.672a.791.791 0 0 1-.792-.777l-.016-.93-2.444-3.295a.792.792 0 1 1 1.275-.942l2.59 3.496a.804.804 0 0 1 .159.46l.02 1.18c.007.44-.341.8-.777.808h-.015M23.294 16.624a.791.791 0 0 1-.792-.776l-.016-.93-2.443-3.295a.795.795 0 0 1 1.275-.947l2.59 3.5a.773.773 0 0 1 .154.46l.024 1.18c.008.44-.34.8-.78.808h-.012" fill="#DF6542"/><path d="M23.527 4.293a1.624 1.624 0 0 1-1.596 1.655 1.627 1.627 0 1 1 1.596-1.655" fill="#FFFFFE"/><path d="M12.717 12.228a.791.791 0 0 1-.792-.776l-.183-10.05c-.008-.44.34-.8.777-.808.423 0 .8.34.807.78l.183 10.05a.792.792 0 0 1-.78.804h-.012M9.786 13.761a.791.791 0 0 1-.606-.281L2.531 5.615A.796.796 0 0 1 2.626 4.5a.795.795 0 0 1 1.117.095l6.649 7.864a.795.795 0 0 1-.095 1.117.783.783 0 0 1-.51.186M7.786 17.642c-.04 0-.083-.004-.122-.008l-6.82-1.061a.792.792 0 0 1 .242-1.564l6.82 1.057a.793.793 0 0 1-.12 1.576M5.414 25.522a.787.787 0 0 1-.661-.356.791.791 0 0 1 .222-1.097l3.215-2.127a.791.791 0 1 1 .875 1.319l-3.215 2.13a.8.8 0 0 1-.436.131M16.122 28.876a.791.791 0 0 1-.792-.776l-.06-3.251c-.007-.44.341-.8.777-.808.447-.016.8.34.808.78l.06 3.251a.792.792 0 0 1-.781.804h-.012" fill="#DF6542"/></g></svg>
